<?xml version="1.0" standalone="no"?>
<!DOCTYPE svg PUBLIC "-//W3C//DTD SVG 20010904//EN"
 "http://www.w3.org/TR/2001/REC-SVG-20010904/DTD/svg10.dtd">
<svg version="1.0" xmlns="http://www.w3.org/2000/svg"
 width="192.000000pt" height="188.000000pt" viewBox="0 0 192.000000 188.000000"
 preserveAspectRatio="xMidYMid meet">

<g transform="translate(0.000000,188.000000) scale(0.100000,-0.100000)"
fill="#000000" stroke="none">
<path d="M20 1020 l0 -830 830 0 830 0 0 830 0 830 -830 0 -830 0 0 -830z
m1617 643 c-4 -75 -7 -426 -7 -780 l0 -643 -780 0 -780 0 0 780 0 780 787 0
786 0 -6 -137z"/>
<path d="M737 1474 c-4 -4 -7 -16 -7 -26 0 -16 -9 -18 -86 -18 l-85 0 3 -42 3
-43 295 0 295 0 3 43 3 42 -85 0 c-80 0 -85 1 -88 23 -3 21 -7 22 -124 25 -66
1 -123 -1 -127 -4z"/>
<path d="M610 1010 l0 -300 250 0 250 0 0 300 0 300 -250 0 -250 0 0 -300z"/>
</g>
</svg>
