<?xml version="1.0" standalone="no"?>
<!DOCTYPE svg PUBLIC "-//W3C//DTD SVG 20010904//EN"
 "http://www.w3.org/TR/2001/REC-SVG-20010904/DTD/svg10.dtd">
<svg version="1.0" xmlns="http://www.w3.org/2000/svg"
 width="192.000000pt" height="188.000000pt" viewBox="0 0 192.000000 188.000000"
 preserveAspectRatio="xMidYMid meet">

<g transform="translate(0.000000,188.000000) scale(0.100000,-0.100000)"
fill="#000000" stroke="none">
<path d="M20 1030 l0 -830 830 0 830 0 -2 827 -3 828 -827 3 -828 2 0 -830z
m1610 0 l0 -780 -785 0 -785 0 0 780 0 780 785 0 785 0 0 -780z"/>
<path d="M746 1344 c-3 -8 -6 -65 -6 -125 l0 -109 -75 0 c-41 0 -75 -3 -75 -8
0 -4 63 -70 140 -147 l140 -140 140 140 c77 77 140 143 140 147 0 5 -34 8 -75
8 l-74 0 -3 123 -3 122 -121 3 c-104 2 -123 0 -128 -14z"/>
<path d="M570 690 l0 -50 298 2 297 3 0 45 0 45 -297 3 -298 2 0 -50z"/>
</g>
</svg>
