<svg xmlns="http://www.w3.org/2000/svg" viewBox="0 0 29.52 24.55"><defs><style>.cls-1{isolation:isolate;}.cls-2{fill:#fff;stroke:#000;stroke-miterlimit:10;}.cls-3{fill:#f78e1f;mix-blend-mode:multiply;}</style></defs><g class="cls-1"><g id="Layer_3" data-name="Layer 3"><path class="cls-2" d="M23.11,7.18H11.54V6.64A2.12,2.12,0,0,0,9.43,4.53H2.61A2.11,2.11,0,0,0,.5,6.64V8.1a2.58,2.58,0,0,0,0,.29.66.66,0,0,0,0,.15V22.69a1.36,1.36,0,0,0,1.36,1.36H23.11a1.36,1.36,0,0,0,1.36-1.36V8.54A1.36,1.36,0,0,0,23.11,7.18Z"/><rect class="cls-3" x="7.28" width="22.23" height="22.23" rx="3.26"/></g></g></svg>